<mxfile host="app.diagrams.net" modified="2023-11-06T17:11:19.622Z" agent="Mozilla/5.0 (Windows NT 10.0; Win64; x64) AppleWebKit/537.36 (KHTML, like Gecko) Chrome/116.0.0.0 Safari/537.36 OPR/102.0.0.0" etag="3C39ib7o3JRjf6ocniBm" version="22.0.8" type="device">
  <diagram name="Page-1" id="sCmzHpI_Pu5R-suw9g4t">
    <mxGraphModel dx="1859" dy="573" grid="1" gridSize="10" guides="1" tooltips="1" connect="1" arrows="1" fold="1" page="1" pageScale="1" pageWidth="850" pageHeight="1100" math="0" shadow="0">
      <root>
        <mxCell id="0" />
        <mxCell id="1" parent="0" />
        <mxCell id="ZYmgql_S5uXhnWvy4TuL-19" style="edgeStyle=orthogonalEdgeStyle;rounded=0;orthogonalLoop=1;jettySize=auto;html=1;exitX=0.5;exitY=1;exitDx=0;exitDy=0;entryX=0.5;entryY=0;entryDx=0;entryDy=0;" edge="1" parent="1" source="ZYmgql_S5uXhnWvy4TuL-1" target="ZYmgql_S5uXhnWvy4TuL-2">
          <mxGeometry relative="1" as="geometry" />
        </mxCell>
        <mxCell id="ZYmgql_S5uXhnWvy4TuL-1" value="Start_DrivingLicense" style="ellipse;whiteSpace=wrap;html=1;" vertex="1" parent="1">
          <mxGeometry x="500" y="40" width="170" height="60" as="geometry" />
        </mxCell>
        <mxCell id="ZYmgql_S5uXhnWvy4TuL-20" style="edgeStyle=orthogonalEdgeStyle;rounded=0;orthogonalLoop=1;jettySize=auto;html=1;exitX=0.5;exitY=1;exitDx=0;exitDy=0;entryX=0.5;entryY=0;entryDx=0;entryDy=0;" edge="1" parent="1" source="ZYmgql_S5uXhnWvy4TuL-2" target="ZYmgql_S5uXhnWvy4TuL-5">
          <mxGeometry relative="1" as="geometry" />
        </mxCell>
        <mxCell id="ZYmgql_S5uXhnWvy4TuL-2" value="INPUT name" style="shape=parallelogram;perimeter=parallelogramPerimeter;whiteSpace=wrap;html=1;fixedSize=1;" vertex="1" parent="1">
          <mxGeometry x="525" y="130" width="120" height="60" as="geometry" />
        </mxCell>
        <mxCell id="ZYmgql_S5uXhnWvy4TuL-22" style="edgeStyle=orthogonalEdgeStyle;rounded=0;orthogonalLoop=1;jettySize=auto;html=1;exitX=0.5;exitY=1;exitDx=0;exitDy=0;entryX=0.5;entryY=0;entryDx=0;entryDy=0;" edge="1" parent="1" source="ZYmgql_S5uXhnWvy4TuL-4" target="ZYmgql_S5uXhnWvy4TuL-6">
          <mxGeometry relative="1" as="geometry" />
        </mxCell>
        <mxCell id="ZYmgql_S5uXhnWvy4TuL-4" value="AgeChecker(name, age)" style="shape=process;whiteSpace=wrap;html=1;backgroundOutline=1;" vertex="1" parent="1">
          <mxGeometry x="480" y="310" width="210" height="60" as="geometry" />
        </mxCell>
        <mxCell id="ZYmgql_S5uXhnWvy4TuL-21" style="edgeStyle=orthogonalEdgeStyle;rounded=0;orthogonalLoop=1;jettySize=auto;html=1;exitX=0.5;exitY=1;exitDx=0;exitDy=0;entryX=0.5;entryY=0;entryDx=0;entryDy=0;" edge="1" parent="1" source="ZYmgql_S5uXhnWvy4TuL-5" target="ZYmgql_S5uXhnWvy4TuL-4">
          <mxGeometry relative="1" as="geometry" />
        </mxCell>
        <mxCell id="ZYmgql_S5uXhnWvy4TuL-5" value="INPUT age" style="shape=parallelogram;perimeter=parallelogramPerimeter;whiteSpace=wrap;html=1;fixedSize=1;" vertex="1" parent="1">
          <mxGeometry x="525" y="210" width="120" height="60" as="geometry" />
        </mxCell>
        <mxCell id="ZYmgql_S5uXhnWvy4TuL-6" value="End_DrivingLicense" style="ellipse;whiteSpace=wrap;html=1;" vertex="1" parent="1">
          <mxGeometry x="500" y="420" width="170" height="60" as="geometry" />
        </mxCell>
        <mxCell id="ZYmgql_S5uXhnWvy4TuL-18" value="" style="edgeStyle=orthogonalEdgeStyle;rounded=0;orthogonalLoop=1;jettySize=auto;html=1;" edge="1" parent="1" source="ZYmgql_S5uXhnWvy4TuL-7" target="ZYmgql_S5uXhnWvy4TuL-8">
          <mxGeometry relative="1" as="geometry" />
        </mxCell>
        <mxCell id="ZYmgql_S5uXhnWvy4TuL-7" value="Start_AgeChecker(name, age)" style="ellipse;whiteSpace=wrap;html=1;" vertex="1" parent="1">
          <mxGeometry x="50" y="40" width="170" height="60" as="geometry" />
        </mxCell>
        <mxCell id="ZYmgql_S5uXhnWvy4TuL-11" style="edgeStyle=orthogonalEdgeStyle;rounded=0;orthogonalLoop=1;jettySize=auto;html=1;exitX=0;exitY=0.5;exitDx=0;exitDy=0;entryX=0.5;entryY=0;entryDx=0;entryDy=0;" edge="1" parent="1" source="ZYmgql_S5uXhnWvy4TuL-8" target="ZYmgql_S5uXhnWvy4TuL-10">
          <mxGeometry relative="1" as="geometry" />
        </mxCell>
        <mxCell id="ZYmgql_S5uXhnWvy4TuL-12" style="edgeStyle=orthogonalEdgeStyle;rounded=0;orthogonalLoop=1;jettySize=auto;html=1;exitX=1;exitY=0.5;exitDx=0;exitDy=0;entryX=0.5;entryY=0;entryDx=0;entryDy=0;" edge="1" parent="1" source="ZYmgql_S5uXhnWvy4TuL-8" target="ZYmgql_S5uXhnWvy4TuL-9">
          <mxGeometry relative="1" as="geometry" />
        </mxCell>
        <mxCell id="ZYmgql_S5uXhnWvy4TuL-8" value="IF age &amp;lt; 18" style="rhombus;whiteSpace=wrap;html=1;" vertex="1" parent="1">
          <mxGeometry x="95" y="140" width="80" height="80" as="geometry" />
        </mxCell>
        <mxCell id="ZYmgql_S5uXhnWvy4TuL-9" value="PRINT name &quot;, you are too young to apply for a driver&#39;s license!&quot;" style="shape=parallelogram;perimeter=parallelogramPerimeter;whiteSpace=wrap;html=1;fixedSize=1;" vertex="1" parent="1">
          <mxGeometry x="175" y="230" width="240" height="60" as="geometry" />
        </mxCell>
        <mxCell id="ZYmgql_S5uXhnWvy4TuL-15" style="edgeStyle=orthogonalEdgeStyle;rounded=0;orthogonalLoop=1;jettySize=auto;html=1;exitX=0.5;exitY=1;exitDx=0;exitDy=0;" edge="1" parent="1" source="ZYmgql_S5uXhnWvy4TuL-10" target="ZYmgql_S5uXhnWvy4TuL-14">
          <mxGeometry relative="1" as="geometry">
            <Array as="points">
              <mxPoint x="-40" y="330" />
            </Array>
          </mxGeometry>
        </mxCell>
        <mxCell id="ZYmgql_S5uXhnWvy4TuL-10" value="PRINT name, &quot;, you may apply for a driver&#39;s license&quot;" style="shape=parallelogram;perimeter=parallelogramPerimeter;whiteSpace=wrap;html=1;fixedSize=1;" vertex="1" parent="1">
          <mxGeometry x="-160" y="230" width="240" height="60" as="geometry" />
        </mxCell>
        <mxCell id="ZYmgql_S5uXhnWvy4TuL-13" value="Return" style="ellipse;whiteSpace=wrap;html=1;" vertex="1" parent="1">
          <mxGeometry x="55" y="390" width="170" height="60" as="geometry" />
        </mxCell>
        <mxCell id="ZYmgql_S5uXhnWvy4TuL-17" value="" style="edgeStyle=orthogonalEdgeStyle;rounded=0;orthogonalLoop=1;jettySize=auto;html=1;" edge="1" parent="1" source="ZYmgql_S5uXhnWvy4TuL-14" target="ZYmgql_S5uXhnWvy4TuL-13">
          <mxGeometry relative="1" as="geometry" />
        </mxCell>
        <mxCell id="ZYmgql_S5uXhnWvy4TuL-14" value="" style="shape=waypoint;sketch=0;size=6;pointerEvents=1;points=[];fillColor=none;resizable=0;rotatable=0;perimeter=centerPerimeter;snapToPoint=1;" vertex="1" parent="1">
          <mxGeometry x="130" y="320" width="20" height="20" as="geometry" />
        </mxCell>
        <mxCell id="ZYmgql_S5uXhnWvy4TuL-16" style="edgeStyle=orthogonalEdgeStyle;rounded=0;orthogonalLoop=1;jettySize=auto;html=1;exitX=0.5;exitY=1;exitDx=0;exitDy=0;entryX=0.14;entryY=0.58;entryDx=0;entryDy=0;entryPerimeter=0;" edge="1" parent="1" source="ZYmgql_S5uXhnWvy4TuL-9" target="ZYmgql_S5uXhnWvy4TuL-14">
          <mxGeometry relative="1" as="geometry">
            <Array as="points">
              <mxPoint x="295" y="330" />
            </Array>
          </mxGeometry>
        </mxCell>
      </root>
    </mxGraphModel>
  </diagram>
</mxfile>
